<svg height="512pt" viewBox="-60 0 512 512" width="512pt" xmlns="http://www.w3.org/2000/svg"><path d="m330.804688 199.578125c-36.226563-17.832031-84.0625-27.65625-134.691407-27.65625-50.628906 0-98.464843 9.820313-134.691406 27.65625-39.609375 19.496094-61.421875 46.664063-61.421875 76.5v131.769531c0 29.832032 21.8125 57 61.421875 76.496094 36.230469 17.835938 84.0625 27.65625 134.691406 27.65625 50.628907 0 98.464844-9.820312 134.691407-27.65625 39.609374-19.496094 61.425781-46.664062 61.425781-76.496094v-131.769531c0-29.835937-21.816407-57.003906-61.425781-76.5zm-256.132813 26.914063c32.1875-15.84375 75.316406-24.570313 121.441406-24.570313s89.253907 8.726563 121.441407 24.570313c28.390624 13.976562 44.671874 32.046874 44.671874 49.582031 0 17.539062-16.28125 35.609375-44.671874 49.585937-32.1875 15.84375-75.316407 24.570313-121.441407 24.570313s-89.253906-8.726563-121.441406-24.570313c-28.390625-13.976562-44.671875-32.046875-44.671875-49.585937 0-17.535157 16.28125-35.605469 44.671875-49.582031zm242.882813 230.9375c-32.1875 15.84375-75.3125 24.570312-121.441407 24.570312-46.125 0-89.253906-8.726562-121.441406-24.570312-28.390625-13.976563-44.671875-32.046876-44.671875-49.582032v-75.335937c8.707031 7.316406 19.21875 14.054687 31.421875 20.0625 36.230469 17.835937 84.0625 27.65625 134.691406 27.65625 50.628907 0 98.464844-9.820313 134.691407-27.65625 12.207031-6.007813 22.714843-12.746094 31.425781-20.0625v75.335937c0 17.535156-16.285157 35.605469-44.675781 49.582032zm0 0"/><path d="m150.363281 297.527344c8.285157 0 15-6.714844 15-15v-23.429688c0-8.285156-6.714843-15-15-15-8.28125 0-15 6.714844-15 15v23.429688c0 8.285156 6.71875 15 15 15zm0 0"/><path d="m196.113281 324.308594c8.285157 0 15-6.714844 15-15v-76.992188c0-8.285156-6.714843-15-15-15-8.285156 0-15 6.714844-15 15v76.992188c0 8.285156 6.714844 15 15 15zm0 0"/><path d="m241.863281 297.527344c8.285157 0 15-6.714844 15-15v-23.429688c0-8.285156-6.714843-15-15-15-8.285156 0-15 6.714844-15 15v23.429688c0 8.285156 6.714844 15 15 15zm0 0"/><path d="m113.703125 416.421875c-12.6875-3.386719-24.441406-7.554687-34.933594-12.378906-7.535156-3.464844-16.4375-.164063-19.898437 7.359375-3.460938 7.527344-.164063 16.433594 7.359375 19.898437 12.035156 5.53125 25.402343 10.277344 39.726562 14.105469 1.296875.347656 2.601563.511719 3.882813.511719 6.625 0 12.6875-4.421875 14.480468-11.128907 2.140626-8.003906-2.613281-16.226562-10.617187-18.367187zm0 0"/><path d="m235.1875 86.417969c3.839844 0 7.675781-1.464844 10.605469-4.394531 5.859375-5.859376 5.859375-15.355469 0-21.214844-27.394531-27.390625-71.964844-27.390625-99.359375 0-5.855469 5.859375-5.855469 15.355468 0 21.214844 5.859375 5.859374 15.355468 5.859374 21.214844 0 15.695312-15.695313 41.234374-15.695313 56.933593 0 2.925781 2.929687 6.765625 4.394531 10.605469 4.394531zm0 0"/><path d="m144.691406 51.300781c13.738282-13.738281 31.996094-21.300781 51.421875-21.300781s37.6875 7.5625 51.421875 21.300781c2.925782 2.925781 6.765625 4.390625 10.605469 4.390625 3.835937 0 7.675781-1.464844 10.605469-4.390625 5.859375-5.859375 5.859375-15.355469 0-21.214843-19.398438-19.402344-45.195313-30.085938-72.632813-30.085938s-53.230469 10.683594-72.632812 30.085938c-5.859375 5.859374-5.859375 15.355468 0 21.214843 5.859375 5.855469 15.355469 5.855469 21.210937 0zm0 0"/><path d="m212.515625 102.71875c0 9.058594-7.34375 16.402344-16.402344 16.402344-9.058593 0-16.402343-7.34375-16.402343-16.402344s7.34375-16.402344 16.402343-16.402344c9.058594 0 16.402344 7.34375 16.402344 16.402344zm0 0"/></svg>