<?xml version="1.0" encoding="UTF-8" standalone="no"?>
<!-- Created with Inkscape (http://www.inkscape.org/) -->

<svg
   xmlns:dc="http://purl.org/dc/elements/1.1/"
   xmlns:cc="http://creativecommons.org/ns#"
   xmlns:rdf="http://www.w3.org/1999/02/22-rdf-syntax-ns#"
   xmlns:svg="http://www.w3.org/2000/svg"
   xmlns="http://www.w3.org/2000/svg"
   xmlns:sodipodi="http://sodipodi.sourceforge.net/DTD/sodipodi-0.dtd"
   xmlns:inkscape="http://www.inkscape.org/namespaces/inkscape"
   width="48"
   height="48"
   viewBox="0 0 12.7 12.7"
   version="1.1"
   id="svg872"
   inkscape:version="0.92.4 (5da689c313, 2019-01-14)"
   sodipodi:docname="base.svg">
  <defs
     id="defs866" />
  <sodipodi:namedview
     id="base"
     pagecolor="#ffffff"
     bordercolor="#666666"
     borderopacity="1.0"
     inkscape:pageopacity="0.0"
     inkscape:pageshadow="2"
     inkscape:zoom="15.839192"
     inkscape:cx="24.975306"
     inkscape:cy="26.724197"
     inkscape:document-units="mm"
     inkscape:current-layer="layer1"
     showgrid="false"
     inkscape:pagecheckerboard="true"
     units="px"
     showguides="true"
     inkscape:guide-bbox="true"
     inkscape:window-width="1920"
     inkscape:window-height="1017"
     inkscape:window-x="-8"
     inkscape:window-y="-8"
     inkscape:window-maximized="1">
    <sodipodi:guide
       position="6.38106,6.0469731"
       orientation="1,0"
       id="guide1443"
       inkscape:locked="false" />
    <sodipodi:guide
       position="8.6027379,6.4812861"
       orientation="0,1"
       id="guide1445"
       inkscape:locked="false"
       inkscape:label=""
       inkscape:color="rgb(0,0,255)" />
  </sodipodi:namedview>
  <metadata
     id="metadata869">
    <rdf:RDF>
      <cc:Work
         rdf:about="">
        <dc:format>image/svg+xml</dc:format>
        <dc:type
           rdf:resource="http://purl.org/dc/dcmitype/StillImage" />
        <dc:title></dc:title>
      </cc:Work>
    </rdf:RDF>
  </metadata>
  <g
     inkscape:label="Capa 1"
     inkscape:groupmode="layer"
     id="layer1"
     transform="translate(0,-284.3)">
    <path
       style="display:inline;fill:#00002b;stroke:#220055;stroke-width:0.01621306"
       inkscape:connector-curvature="0"
       d="m 8.6422338,288.56566 c -0.6081635,-0.2792 -1.4112251,-0.43301 -2.2611738,-0.43301 -0.8499473,0 -1.6530073,0.15389 -2.2611716,0.43301 -0.664954,0.3053 -1.0311383,0.73067 -1.0311383,1.19786 v 2.06323 c 0,0.46712 0.3661843,0.8925 1.0311383,1.19779 0.6082287,0.27926 1.4112243,0.43306 2.2611716,0.43306 0.8499487,0 1.6530103,-0.15389 2.2611738,-0.43306 0.6649539,-0.30529 1.0312035,-0.73067 1.0312035,-1.19779 v -2.06323 c 0,-0.46719 -0.3662496,-0.89256 -1.0312035,-1.19786 z m -4.2999073,0.42143 c 0.5403578,-0.24806 1.2643974,-0.38472 2.0387335,-0.38472 0.7743376,0 1.4983772,0.1365 2.0387349,0.38472 0.4766156,0.21887 0.7499425,0.50178 0.7499425,0.77638 0,0.2746 -0.2733269,0.55754 -0.7499425,0.77637 -0.5403577,0.24808 -1.2643973,0.38474 -2.0387349,0.38474 -0.7743361,0 -1.4983757,-0.13666 -2.0387335,-0.38474 -0.4766165,-0.21883 -0.7499415,-0.50177 -0.7499415,-0.77637 0,-0.2746 0.273325,-0.55751 0.7499415,-0.77638 z m 4.0774684,3.61601 c -0.5403577,0.24807 -1.2643314,0.38473 -2.0387349,0.38473 -0.7743361,0 -1.4983757,-0.1365 -2.0387335,-0.38473 C 3.86571,292.38425 3.592385,292.10133 3.592385,291.82675 v -1.17964 c 0.1461703,0.11439 0.32264,0.22017 0.5275034,0.31418 0.6082287,0.27927 1.4112243,0.43303 2.2611716,0.43303 0.8499487,0 1.6530103,-0.15388 2.2611738,-0.43303 0.2049297,-0.0942 0.3813317,-0.1995 0.5275679,-0.31418 v 1.17964 c 0,0.27458 -0.2733912,0.55753 -0.7500068,0.77635 z m 0,0"
       id="path2" />
    <path
       style="display:inline;fill:#00002b;stroke:#170b28;stroke-width:0.01621306"
       inkscape:connector-curvature="0"
       d="m 5.6130199,290.09938 c 0.1390852,0 0.2518154,-0.10523 0.2518154,-0.23491 v -0.36685 c 0,-0.12972 -0.1127271,-0.23489 -0.2518154,-0.23489 -0.1390224,0 -0.251817,0.10522 -0.251817,0.23489 v 0.36685 c 0,0.12971 0.1127896,0.23491 0.251817,0.23491 z m 0,0"
       id="path4" />
    <path
       style="display:inline;fill:#00002b;stroke:#170b28;stroke-width:0.01621306"
       inkscape:connector-curvature="0"
       d="m 6.38106,290.51871 c 0.139085,0 0.2518185,-0.10521 0.2518185,-0.23486 v -1.20558 c 0,-0.12971 -0.1127271,-0.23488 -0.2518185,-0.23488 -0.1390852,0 -0.2518155,0.10523 -0.2518155,0.23488 v 1.20558 c 0,0.12971 0.1127271,0.23486 0.2518155,0.23486 z m 0,0"
       id="path6" />
    <path
       style="display:inline;fill:#00002b;stroke:#170b28;stroke-width:0.01621306"
       inkscape:connector-curvature="0"
       d="m 7.1491031,290.09938 c 0.1390851,0 0.2518169,-0.10523 0.2518169,-0.23491 v -0.36685 c 0,-0.12972 -0.1127271,-0.23489 -0.2518169,-0.23489 -0.1390851,0 -0.2518185,0.10522 -0.2518185,0.23489 v 0.36685 c 0,0.12971 0.1127271,0.23491 0.2518185,0.23491 z m 0,0"
       id="path8" />
    <path
       style="display:inline;fill:#00002b;stroke:#170b28;stroke-width:0.01621306"
       inkscape:connector-curvature="0"
       d="m 4.997575,291.96102 c -0.2129955,-0.0528 -0.4103174,-0.1185 -0.5864574,-0.19383 -0.1265008,-0.0542 -0.2759493,-0.001 -0.3340512,0.11518 -0.058104,0.11786 -0.00279,0.25735 0.1235402,0.31156 0.2020435,0.0866 0.4264497,0.16091 0.6669219,0.22093 0.021761,0.005 0.043663,0.009 0.065188,0.009 0.1112214,0 0.2129956,-0.0692 0.2430954,-0.17421 0.035944,-0.12512 -0.043867,-0.25402 -0.1782392,-0.2876 z m 0,0"
       id="path10" />
    <path
       style="display:inline;fill:#00002b;stroke:#170b28;stroke-width:0.01925029"
       inkscape:connector-curvature="0"
       d="m 2.4174314,291.34576 c 0.00234,0.0757 -0.020335,0.15199 -0.07606,0.21174 -0.1064768,0.11929 -0.2849315,0.12545 -0.3985443,0.0143 -0.531299,-0.52214 -0.558549,-1.40043 -0.060749,-1.9579 0.106478,-0.11881 0.2849339,-0.12513 0.3985439,-0.0143 0.1136398,0.1117 0.1194491,0.2988 0.012944,0.41803 -0.2852823,0.31939 -0.2696665,0.82268 0.034811,1.12189 0.056819,0.0557 0.08668,0.13034 0.089028,0.20617 z m 0,0"
       id="path12" />
    <path
       style="display:inline;fill:#00002b;stroke:#170b28;stroke-width:0.01925029"
       inkscape:connector-curvature="0"
       d="m 1.0019198,289.54207 c -0.24951485,0.27959 -0.38059371,0.64425 -0.36871692,1.02702 0.0118954,0.38278 0.1650625,0.73777 0.43159542,0.99954 0.056819,0.0557 0.086679,0.13036 0.089028,0.20619 0.00234,0.0756 -0.020335,0.15215 -0.07606,0.21179 -0.10647681,0.11929 -0.2849042,0.12545 -0.39851677,0.0142 -0.37635847,-0.36973 -0.59284798,-0.87119 -0.60962321,-1.41189 -0.01676751,-0.54063 0.16811697,-1.05579 0.52080821,-1.45062 0.10647803,-0.11928 0.28490382,-0.12545 0.3985164,-0.0142 0.11363977,0.11185 0.11944657,0.29876 0.0129441,0.41796 z m 0,0"
       id="path14" />
    <path
       style="display:inline;fill:#00002b;stroke:#170b28;stroke-width:0.0186381"
       inkscape:connector-curvature="0"
       d="m 10.341689,291.17007 c -0.0023,0.0741 0.01949,0.14883 0.07283,0.2073 0.101963,0.11676 0.272827,0.12292 0.381613,0.0143 0.508732,-0.5112 0.534823,-1.37102 0.05817,-1.91678 -0.101963,-0.11629 -0.272831,-0.12261 -0.381616,-0.0143 -0.108811,0.10948 -0.114385,0.29252 -0.01256,0.40925 0.273166,0.31271 0.258211,0.80539 -0.03332,1.09832 -0.05439,0.0545 -0.083,0.12766 -0.08525,0.20187 z m 0,0"
       id="path12-2" />
    <path
       style="display:inline;fill:#00002b;stroke:#170b28;stroke-width:0.0186381"
       inkscape:connector-curvature="0"
       d="m 11.804662,289.44643 c 0.238914,0.27372 0.364426,0.63072 0.353052,1.00545 -0.01139,0.37475 -0.158062,0.72227 -0.413261,0.97856 -0.05439,0.0547 -0.083,0.12766 -0.08523,0.20184 -0.0023,0.0738 0.01949,0.14899 0.07283,0.20732 0.101974,0.11676 0.2728,0.12292 0.381587,0.0143 0.36037,-0.36196 0.567659,-0.85287 0.583725,-1.38218 0.01624,-0.52933 -0.160984,-1.03363 -0.498682,-1.4202 -0.101962,-0.11675 -0.272801,-0.12291 -0.381586,-0.0142 -0.108811,0.10949 -0.114385,0.2925 -0.01256,0.4092 z m 0,0"
       id="path14-2" />
  </g>
</svg>
