<?xml version="1.0" encoding="UTF-8" standalone="no"?>
<!-- Generator: Adobe Illustrator 19.0.0, SVG Export Plug-In . SVG Version: 6.00 Build 0)  -->

<svg
   xmlns:dc="http://purl.org/dc/elements/1.1/"
   xmlns:cc="http://creativecommons.org/ns#"
   xmlns:rdf="http://www.w3.org/1999/02/22-rdf-syntax-ns#"
   xmlns:svg="http://www.w3.org/2000/svg"
   xmlns="http://www.w3.org/2000/svg"
   xmlns:sodipodi="http://sodipodi.sourceforge.net/DTD/sodipodi-0.dtd"
   xmlns:inkscape="http://www.inkscape.org/namespaces/inkscape"
   version="1.1"
   id="Layer_1"
   x="0px"
   y="0px"
   viewBox="0 0 512 512"
   style="enable-background:new 0 0 512 512;"
   xml:space="preserve"
   sodipodi:docname="home.svg"
   inkscape:version="0.92.4 (5da689c313, 2019-01-14)"><metadata
   id="metadata1082"><rdf:RDF><cc:Work
       rdf:about=""><dc:format>image/svg+xml</dc:format><dc:type
         rdf:resource="http://purl.org/dc/dcmitype/StillImage" /></cc:Work></rdf:RDF></metadata><defs
   id="defs1080" /><sodipodi:namedview
   pagecolor="#ffffff"
   bordercolor="#666666"
   borderopacity="1"
   objecttolerance="10"
   gridtolerance="10"
   guidetolerance="10"
   inkscape:pageopacity="0"
   inkscape:pageshadow="2"
   inkscape:window-width="1920"
   inkscape:window-height="1017"
   id="namedview1078"
   showgrid="false"
   showguides="false"
   inkscape:guide-bbox="true"
   inkscape:zoom="1.65625"
   inkscape:cx="243.77224"
   inkscape:cy="328.50002"
   inkscape:window-x="438"
   inkscape:window-y="1072"
   inkscape:window-maximized="1"
   inkscape:current-layer="layer2"><sodipodi:guide
     position="0,256"
     orientation="1,0"
     id="guide1084"
     inkscape:locked="false" /><sodipodi:guide
     position="512,272.90566"
     orientation="1,0"
     id="guide1086"
     inkscape:locked="false" /><sodipodi:guide
     position="304.90566,512"
     orientation="0,1"
     id="guide1088"
     inkscape:locked="false" /><sodipodi:guide
     position="0,0"
     orientation="0,1"
     id="guide1090"
     inkscape:locked="false" /><sodipodi:guide
     position="256,393.0566"
     orientation="1,0"
     id="guide1092"
     inkscape:locked="false" /><sodipodi:guide
     position="148.5283,256"
     orientation="0,1"
     id="guide1094"
     inkscape:locked="false" /><sodipodi:guide
     position="33.811321,256"
     orientation="1,0"
     id="guide1100"
     inkscape:locked="false" /><sodipodi:guide
     position="111.09434,480"
     orientation="0,1"
     id="guide1102"
     inkscape:locked="false" /><sodipodi:guide
     position="480,183.54717"
     orientation="1,0"
     id="guide1106"
     inkscape:locked="false" /><sodipodi:guide
     position="256,32"
     orientation="0,1"
     id="guide1108"
     inkscape:locked="false" /><sodipodi:guide
     position="65.207547,234.86792"
     orientation="1,0"
     id="guide1120"
     inkscape:locked="false" /><sodipodi:guide
     position="449.81132,240.90566"
     orientation="1,0"
     id="guide1122"
     inkscape:locked="false" /><sodipodi:guide
     position="-55.54717,449.81132"
     orientation="0,1"
     id="guide1124"
     inkscape:locked="false" /><sodipodi:guide
     position="-94.792453,59.773585"
     orientation="0,1"
     id="guide1126"
     inkscape:locked="false" /><sodipodi:guide
     position="237.88679,321.20755"
     orientation="0,1"
     id="guide1128"
     inkscape:locked="false" /><sodipodi:guide
     position="190.2528,170.77267"
     orientation="0,1"
     id="guide1130"
     inkscape:locked="false" /><sodipodi:guide
     position="242.71698,272.90566"
     orientation="0,1"
     id="guide1132"
     inkscape:locked="false" /><sodipodi:guide
     position="245.13208,265.66038"
     orientation="0,1"
     id="guide1134"
     inkscape:locked="false" /><inkscape:grid
     type="xygrid"
     id="grid1136" /></sodipodi:namedview>


<g
   id="g1047">
</g>
<g
   id="g1049">
</g>
<g
   id="g1051">
</g>
<g
   id="g1053">
</g>
<g
   id="g1055">
</g>
<g
   id="g1057">
</g>
<g
   id="g1059">
</g>
<g
   id="g1061">
</g>
<g
   id="g1063">
</g>
<g
   id="g1065">
</g>
<g
   id="g1067">
</g>
<g
   id="g1069">
</g>
<g
   id="g1071">
</g>
<g
   id="g1073">
</g>
<g
   id="g1075">
</g>
<g
   inkscape:groupmode="layer"
   id="layer1"
   inkscape:label="back"
   style="display:inline"
   sodipodi:insensitive="true"><ellipse
     style="opacity:1;fill:#373748;stroke-width:1.03279555"
     id="path1096"
     cx="257.72296"
     cy="256.56372"
     rx="256"
     ry="255.99998" /><ellipse
     style="opacity:1;fill:#ffd42a;stroke-width:0.87263829"
     id="path1098"
     cx="258.06522"
     cy="256.77646"
     rx="222.79245"
     ry="224" /></g><g
   inkscape:groupmode="layer"
   id="layer2"
   inkscape:label="house"><g
     id="g1045"
     transform="matrix(0.71052824,0,0,0.57796224,57.211779,79.14447)"
     style="fill:#373748">
	<g
   id="g1043"
   style="fill:#373748">
		<path
   d="m 460.77268,267.93365 c -7.346,0 -21.14145,7.16298 -21.10371,14.50983 l 0.97509,189.83671 h -80.09462 v -94.88054 c 0,-46.4675 -38.28363,-85.95478 -78.22106,-84.62242 -39.59353,1.32089 -81.64933,27.09357 -80.17123,83.41559 l 0.97509,97.4846 -76.19527,-2.41367 0.97509,-188.81927 c 0.0379,-7.34685 -13.75771,-15.71666 -21.10371,-15.71666 -7.345998,0 -23.05388,7.16283 -23.05388,14.50983 v 225.053 c 0,7.347 5.957,13.303 13.303,13.303 h 133.029 c 6.996,0 12.721,-5.405 13.251,-12.267 0.032,-0.311 0.052,-0.651 0.052,-1.036 v -128.89 c 0,-22.009 17.905,-39.914 39.914,-39.914 22.009,0 39.914,17.906 39.914,39.914 v 128.89 c 0,0.383 0.02,0.717 0.052,1.024 0.524,6.867 6.251,12.279 13.251,12.279 h 133.029 c 7.347,0 13.303,-5.956 13.303,-13.303 v -225.053 c -10e-4,-7.348 -14.73279,-13.304 -22.07979,-13.304 z"
   id="path1041"
   inkscape:connector-curvature="0"
   style="fill:#373748"
   sodipodi:nodetypes="ssccsscccsssssscssssscssscs" />
	</g>
</g><g
     id="g1039"
     transform="matrix(0.64613375,0,0,0.69471204,92.589754,42.214371)"
     style="fill:#373748">
	<g
   id="g1037"
   style="fill:#373748">
		<path
   d="M 499.07948,221.01851 263.859,48.536098 c -4.68,-3.426 -11.038,-3.426 -15.716,0 L 9.1827594,222.7567 c -8.73132176,9.5556 -4.2037732,14.85824 -4.7438812,21.63485 -0.65564,8.22616 29.9887538,20.97024 42.8874868,13.43282 L 256.00001,106.53043 466.51093,258.969 c 5.60806,2.20218 10.66393,4.36806 21.22313,4.17674 11.8677,-0.21503 24.74709,-9.31244 25.10695,-17.78472 -0.3302,-10.27249 -1.29245,-14.35237 -13.76153,-24.34251 z"
   id="path1035"
   inkscape:connector-curvature="0"
   style="fill:#373748"
   sodipodi:nodetypes="ccccscccscc" />
	</g>
</g></g></svg>