<?xml version="1.0" encoding="UTF-8" standalone="no"?>
<!-- Created with Inkscape (http://www.inkscape.org/) -->

<svg
   xmlns:dc="http://purl.org/dc/elements/1.1/"
   xmlns:cc="http://creativecommons.org/ns#"
   xmlns:rdf="http://www.w3.org/1999/02/22-rdf-syntax-ns#"
   xmlns:svg="http://www.w3.org/2000/svg"
   xmlns="http://www.w3.org/2000/svg"
   xmlns:sodipodi="http://sodipodi.sourceforge.net/DTD/sodipodi-0.dtd"
   xmlns:inkscape="http://www.inkscape.org/namespaces/inkscape"
   width="48"
   height="48"
   viewBox="0 0 12.7 12.7"
   version="1.1"
   id="svg8"
   inkscape:version="0.92.4 (5da689c313, 2019-01-14)"
   sodipodi:docname="marker-device-v2-grey.svg">
  <defs
     id="defs2">
    <inkscape:path-effect
       effect="bspline"
       id="path-effect908"
       is_visible="true"
       weight="33.333333"
       steps="2"
       helper_size="0"
       apply_no_weight="true"
       apply_with_weight="true"
       only_selected="false" />
    <inkscape:path-effect
       effect="bspline"
       id="path-effect904"
       is_visible="true"
       weight="33.333333"
       steps="2"
       helper_size="0"
       apply_no_weight="true"
       apply_with_weight="true"
       only_selected="false" />
    <inkscape:path-effect
       effect="bspline"
       id="path-effect900"
       is_visible="true"
       weight="33.333333"
       steps="2"
       helper_size="0"
       apply_no_weight="true"
       apply_with_weight="true"
       only_selected="false" />
    <inkscape:path-effect
       effect="bspline"
       id="path-effect4601"
       is_visible="true"
       weight="33.333333"
       steps="2"
       helper_size="0"
       apply_no_weight="true"
       apply_with_weight="true"
       only_selected="false" />
    <inkscape:path-effect
       effect="bspline"
       id="path-effect4597"
       is_visible="true"
       weight="33.333333"
       steps="2"
       helper_size="0"
       apply_no_weight="true"
       apply_with_weight="true"
       only_selected="false" />
    <inkscape:path-effect
       effect="bspline"
       id="path-effect4571"
       is_visible="true"
       weight="33.333333"
       steps="2"
       helper_size="0"
       apply_no_weight="true"
       apply_with_weight="true"
       only_selected="false" />
    <inkscape:path-effect
       effect="bspline"
       id="path-effect4601-6"
       is_visible="true"
       weight="33.333333"
       steps="2"
       helper_size="0"
       apply_no_weight="true"
       apply_with_weight="true"
       only_selected="false" />
  </defs>
  <sodipodi:namedview
     id="base"
     pagecolor="#ffffff"
     bordercolor="#666666"
     borderopacity="1.0"
     inkscape:pageopacity="0.0"
     inkscape:pageshadow="2"
     inkscape:zoom="16"
     inkscape:cx="37.222263"
     inkscape:cy="25.856013"
     inkscape:document-units="px"
     inkscape:current-layer="layer1"
     showgrid="false"
     inkscape:pagecheckerboard="true"
     units="px"
     showguides="true"
     inkscape:guide-bbox="true"
     inkscape:window-width="1920"
     inkscape:window-height="1017"
     inkscape:window-x="438"
     inkscape:window-y="1072"
     inkscape:window-maximized="1">
    <sodipodi:guide
       position="6.3493217,6.3507833"
       orientation="1,0"
       id="guide817"
       inkscape:locked="false" />
    <sodipodi:guide
       position="6.3493217,6.3507833"
       orientation="0,1"
       id="guide819"
       inkscape:locked="false" />
    <sodipodi:guide
       position="6.3493217,9.518136"
       orientation="0,1"
       id="guide821"
       inkscape:locked="false" />
    <sodipodi:guide
       position="3.1688143,9.518136"
       orientation="1,0"
       id="guide823"
       inkscape:locked="false" />
    <sodipodi:guide
       position="9.525,9.518136"
       orientation="1,0"
       id="guide825"
       inkscape:locked="false" />
    <sodipodi:guide
       position="1.5875,9.518136"
       orientation="1,0"
       id="guide827"
       inkscape:locked="false" />
    <sodipodi:guide
       position="11.1125,9.518136"
       orientation="1,0"
       id="guide829"
       inkscape:locked="false" />
    <sodipodi:guide
       position="6.3493217,11.1125"
       orientation="0,1"
       id="guide831"
       inkscape:locked="false" />
    <sodipodi:guide
       position="6.3493217,4.7625"
       orientation="0,1"
       id="guide833"
       inkscape:locked="false" />
    <sodipodi:guide
       position="6.3493217,1.6701823"
       orientation="0,1"
       id="guide837"
       inkscape:locked="false" />
    <sodipodi:guide
       position="2.38125,9.518136"
       orientation="1,0"
       id="guide841"
       inkscape:locked="false" />
    <sodipodi:guide
       position="10.31875,9.518136"
       orientation="1,0"
       id="guide843"
       inkscape:locked="false" />
    <sodipodi:guide
       position="3.1688143,11.90625"
       orientation="0,1"
       id="guide845"
       inkscape:locked="false" />
    <sodipodi:guide
       position="6.3493217,3.96875"
       orientation="0,1"
       id="guide849"
       inkscape:locked="false" />
    <sodipodi:guide
       position="6.3493217,8.16456"
       orientation="0,1"
       id="guide874"
       inkscape:locked="false" />
    <sodipodi:guide
       position="6.3493217,-0.0082682292"
       orientation="0,1"
       id="guide894"
       inkscape:locked="false" />
  </sodipodi:namedview>
  <metadata
     id="metadata5">
    <rdf:RDF>
      <cc:Work
         rdf:about="">
        <dc:format>image/svg+xml</dc:format>
        <dc:type
           rdf:resource="http://purl.org/dc/dcmitype/StillImage" />
        <dc:title></dc:title>
      </cc:Work>
    </rdf:RDF>
  </metadata>
  <g
     inkscape:label="Capa 1"
     inkscape:groupmode="layer"
     id="layer1"
     transform="translate(0,-284.3)"
     style="display:inline">
    <path
       style="fill:#beb7c8;stroke:#220055;stroke-width:0.26458332px;stroke-linecap:butt;stroke-linejoin:miter;stroke-opacity:1"
       d="m 5.4146852,296.01565 c -0.8848749,-1.00106 -2.6546014,-3.00315 -3.4399269,-5.11997 -0.7853256,-2.11683 -0.5862789,-4.34813 1.1007001,-5.46639 1.686979,-1.11825 4.8623066,-1.12375 6.5740541,-0.0574 1.7117475,1.06636 1.9605755,3.20518 1.1585535,5.32461 -0.802022,2.11942 -2.6458723,4.20916 -3.5771891,5.26468 -0.9313169,1.05551 -0.9313169,1.05551 -1.8161917,0.0544 z"
       id="path4599"
       inkscape:connector-curvature="0"
       inkscape:path-effect="#path-effect4601"
       inkscape:original-d="M 6.29956,297.01671 C 4.5300865,295.01435 2.7603604,293.01226 0.99036186,291.01042 1.1896733,288.77887 1.38872,286.54757 1.5875,284.31654 c 3.1749465,-2.7e-4 6.3502645,-0.0113 9.525,-0.0165 0.249052,2.1382 0.49788,4.27702 0.746423,6.41593 -1.852859,2.09999 -3.6967089,4.18973 -5.559363,6.30074 2.654e-4,-2.6e-4 2.654e-4,-2.6e-4 0,0 z"
       transform="matrix(0.99694263,0,0,1.0192513,0.00599227,-5.6106629)"
       sodipodi:nodetypes="ccccccc" />
    <path
       style="fill:#220055;stroke:#220055;stroke-width:0.01029784"
       inkscape:connector-curvature="0"
       d="m 7.7905473,287.50756 c -0.3876314,-0.17672 -0.8994863,-0.27407 -1.4412256,-0.27407 -0.5417392,0 -1.0535932,0.0974 -1.4412248,0.27407 -0.4238281,0.19323 -0.6572265,0.46247 -0.6572265,0.75817 v 1.30591 c 0,0.29566 0.2333984,0.5649 0.6572265,0.75813 0.387673,0.17676 0.8994856,0.2741 1.4412248,0.2741 0.5417393,0 1.0535942,-0.0974 1.4412256,-0.2741 0.4238282,-0.19323 0.6572681,-0.46247 0.6572681,-0.75813 v -1.30591 c 0,-0.2957 -0.2334399,-0.56494 -0.6572681,-0.75817 z m -2.740673,0.26674 c 0.3444132,-0.15701 0.805901,-0.24351 1.2994474,-0.24351 0.4935471,0 0.9550351,0.0864 1.2994476,0.24351 0.3037855,0.13853 0.4779982,0.3176 0.4779982,0.4914 0,0.17381 -0.1742127,0.35289 -0.4779982,0.4914 -0.3444125,0.15702 -0.8059005,0.24352 -1.2994476,0.24352 -0.4935464,0 -0.9550342,-0.0865 -1.2994474,-0.24352 -0.3037856,-0.13851 -0.4779974,-0.31759 -0.4779974,-0.4914 0,-0.1738 0.1742118,-0.35287 0.4779974,-0.4914 z m 2.598895,2.28873 c -0.3444125,0.15701 -0.8058591,0.24351 -1.2994476,0.24351 -0.4935464,0 -0.9550342,-0.0864 -1.2994474,-0.24351 -0.3037856,-0.13853 -0.4779974,-0.3176 -0.4779974,-0.49139 V 288.825 c 0.093166,0.0724 0.2056442,0.13935 0.33622,0.19885 0.387673,0.17677 0.8994856,0.27409 1.4412248,0.27409 0.5417393,0 1.0535942,-0.0974 1.4412256,-0.27409 0.1306179,-0.0596 0.243053,-0.12627 0.3362616,-0.19885 v 0.74664 c 0,0.17379 -0.1742541,0.35288 -0.4780396,0.49139 z m 0,0"
       id="path2" />
    <path
       style="fill:#220055;stroke:#170b28;stroke-width:0.01029784"
       inkscape:connector-curvature="0"
       d="m 5.8597879,288.47831 c 0.088654,0 0.1605027,-0.0666 0.1605027,-0.14868 v -0.2322 c 0,-0.0821 -0.07185,-0.14867 -0.1605027,-0.14867 -0.088612,0 -0.1605028,0.0666 -0.1605028,0.14867 v 0.2322 c 0,0.0821 0.071892,0.14868 0.1605028,0.14868 z m 0,0"
       id="path4" />
    <path
       style="fill:#220055;stroke:#170b28;stroke-width:0.01029784"
       inkscape:connector-curvature="0"
       d="m 6.3493217,288.74373 c 0.088654,0 0.1605035,-0.0666 0.1605035,-0.14866 v -0.76306 c 0,-0.0821 -0.07185,-0.14866 -0.1605035,-0.14866 -0.088652,0 -0.1605028,0.0666 -0.1605028,0.14866 v 0.76306 c 0,0.0821 0.071851,0.14866 0.1605028,0.14866 z m 0,0"
       id="path6" />
    <path
       style="fill:#220055;stroke:#170b28;stroke-width:0.01029784"
       inkscape:connector-curvature="0"
       d="m 6.8388566,288.47831 c 0.088652,0 0.1605026,-0.0666 0.1605026,-0.14868 v -0.2322 c 0,-0.0821 -0.071851,-0.14867 -0.1605026,-0.14867 -0.088653,0 -0.1605038,0.0666 -0.1605038,0.14867 v 0.2322 c 0,0.0821 0.071851,0.14868 0.1605038,0.14868 z m 0,0"
       id="path8" />
    <path
       style="fill:#220055;stroke:#170b28;stroke-width:0.01029784"
       inkscape:connector-curvature="0"
       d="m 5.4675165,289.65662 c -0.1357588,-0.0334 -0.2615282,-0.075 -0.3737964,-0.12268 -0.080629,-0.0343 -0.1758841,-7.3e-4 -0.2129172,0.0729 -0.037034,0.0746 -0.00178,0.16289 0.078742,0.1972 0.1287789,0.0548 0.2718102,0.10185 0.4250825,0.13984 0.013872,0.003 0.027833,0.006 0.041545,0.006 0.07089,0 0.1357589,-0.0438 0.1549436,-0.11026 0.022908,-0.0792 -0.027963,-0.16078 -0.1136061,-0.18204 z m 0,0"
       id="path10" />
    <path
       style="fill:#220055;stroke:#170b28;stroke-width:0.01222696"
       inkscape:connector-curvature="0"
       d="m 3.8229856,289.2672 c 0.00149,0.0479 -0.012961,0.0962 -0.048479,0.13402 -0.067866,0.0755 -0.1816095,0.0794 -0.254024,0.009 -0.3386392,-0.33049 -0.3560078,-0.88639 -0.03872,-1.23924 0.067867,-0.0752 0.181611,-0.0792 0.2540238,-0.009 0.072432,0.0707 0.076134,0.18912 0.00825,0.26459 -0.1818332,0.20216 -0.17188,0.52071 0.022188,0.71009 0.036215,0.0353 0.055248,0.0825 0.056745,0.1305 z m 0,0"
       id="path12" />
    <path
       style="fill:#220055;stroke:#170b28;stroke-width:0.01222696"
       inkscape:connector-curvature="0"
       d="m 2.9207674,288.12557 c -0.1590357,0.17696 -0.2425827,0.40777 -0.2350127,0.65004 0.00758,0.24228 0.1052075,0.46697 0.2750901,0.63266 0.036215,0.0353 0.055247,0.0825 0.056745,0.1305 0.00149,0.0478 -0.012961,0.0963 -0.048479,0.13405 -0.067866,0.0755 -0.1815921,0.0794 -0.2540063,0.009 -0.2398833,-0.23402 -0.3778693,-0.55141 -0.3885615,-0.89364 -0.010687,-0.34219 0.1071543,-0.66825 0.3319525,-0.91816 0.067867,-0.0755 0.1815919,-0.0794 0.2540062,-0.009 0.072432,0.0708 0.076133,0.1891 0.00825,0.26455 z m 0,0"
       id="path14" />
    <path
       style="display:inline;fill:#220055;stroke:#170b28;stroke-width:0.01183812"
       inkscape:connector-curvature="0"
       d="m 8.8737449,289.156 c -0.00147,0.0469 0.012416,0.0942 0.046421,0.13121 0.064991,0.0739 0.1738942,0.0778 0.2432321,0.009 0.3242564,-0.32356 0.3408858,-0.86777 0.037075,-1.21321 -0.064991,-0.0736 -0.1738969,-0.0776 -0.2432334,-0.009 -0.069345,0.0693 -0.072909,0.18515 -0.00802,0.25903 0.1741092,0.19793 0.164578,0.50977 -0.02124,0.69518 -0.034672,0.0345 -0.052897,0.0808 -0.054338,0.12777 z m 0,0"
       id="path12-2" />
    <path
       style="display:inline;fill:#220055;stroke:#170b28;stroke-width:0.01183812"
       inkscape:connector-curvature="0"
       d="m 9.8062136,288.06503 c 0.1522793,0.17325 0.2322774,0.39921 0.2250284,0.6364 -0.0073,0.23719 -0.1007446,0.45715 -0.263404,0.61937 -0.034674,0.0346 -0.052897,0.0808 -0.054324,0.12775 -0.00147,0.0467 0.012417,0.0943 0.046421,0.13122 0.064997,0.0739 0.1738772,0.0778 0.243216,0.009 0.229692,-0.2291 0.361814,-0.53982 0.372054,-0.87484 0.01035,-0.33503 -0.102608,-0.65423 -0.317849,-0.8989 -0.064986,-0.0739 -0.1738786,-0.0778 -0.2432162,-0.009 -0.069349,0.0693 -0.07291,0.18514 -0.00802,0.259 z m 0,0"
       id="path14-2" />
    <path
       style="opacity:1;fill:#f2f2f2;stroke:#220055;stroke-width:0.01891032"
       d="m 5.9604532,290.27353 c -0.610222,-0.0601 -1.1268555,-0.26736 -1.3061931,-0.52407 l -0.062658,-0.0897 v -0.39851 -0.39851 l 0.062658,0.0397 c 0.6746513,0.42729 1.9224599,0.53334 2.8488182,0.2421 0.191263,-0.0601 0.453356,-0.17983 0.5540317,-0.25302 l 0.062658,-0.0455 -1.076e-4,0.36726 c -5.77e-5,0.20877 -0.00921,0.39884 -0.021211,0.4404 -0.014224,0.0493 -0.05986,0.11042 -0.1399619,0.18749 -0.2315076,0.22272 -0.6793651,0.37906 -1.243352,0.43402 -0.2290877,0.0223 -0.517832,0.0217 -0.7546817,-0.002 z M 5.5468181,289.9152 c 0.056979,-0.0548 0.063364,-0.15443 0.013582,-0.21188 -0.03719,-0.0429 -0.3917137,-0.16801 -0.5159465,-0.18204 -0.1384923,-0.0156 -0.2227498,0.0955 -0.1709212,0.22541 0.016084,0.0403 0.1359594,0.0979 0.335015,0.1608 0.2072566,0.0656 0.2765241,0.0671 0.3382694,0.007 z"
       id="path962"
       inkscape:connector-curvature="0" />
    <path
       style="opacity:1;fill:#f9f9f9;stroke:#220055;stroke-width:0.01891032"
       d="m 5.797076,288.94934 c -0.4912622,-0.0766 -0.8564983,-0.22037 -1.0682674,-0.42044 -0.096702,-0.0914 -0.1372072,-0.17006 -0.1372072,-0.26656 0,-0.26756 0.4413733,-0.53591 1.0888419,-0.662 0.1846308,-0.036 0.2720093,-0.0414 0.665602,-0.0409 0.3450965,3.2e-4 0.4944224,0.008 0.626587,0.0321 0.6518347,0.11901 1.0760082,0.3573 1.1369293,0.63869 0.00903,0.0417 6.786e-4,0.0858 -0.028077,0.14838 -0.1067948,0.23227 -0.4833711,0.43279 -1.0263011,0.54648 -0.2409886,0.0505 -0.9967443,0.0651 -1.2581079,0.0243 z m 0.632175,-0.21582 c 0.086515,-0.0443 0.089055,-0.0591 0.089698,-0.52179 l 6.169e-4,-0.44137 -0.047323,-0.0456 c -0.032027,-0.0308 -0.068907,-0.0455 -0.1141007,-0.0455 -0.1752136,0 -0.1856095,0.0306 -0.1856095,0.54767 v 0.41968 l 0.056355,0.0542 c 0.060268,0.058 0.1290451,0.0692 0.2003666,0.0326 z m -0.4862916,-0.2668 c 0.075855,-0.0378 0.094612,-0.0914 0.094612,-0.2707 0,-0.13951 -0.00344,-0.15192 -0.056355,-0.20282 -0.073654,-0.0708 -0.174973,-0.0745 -0.2433545,-0.009 -0.043851,0.0422 -0.047323,0.059 -0.047323,0.22862 0,0.16625 0.00399,0.18658 0.043379,0.22106 0.075986,0.0665 0.1253107,0.0742 0.2090415,0.0325 z m 0.9808256,0.002 c 0.075937,-0.0378 0.1039996,-0.12976 0.092442,-0.30302 -0.00822,-0.12325 -0.015535,-0.14508 -0.06128,-0.18293 -0.070755,-0.0586 -0.1714613,-0.0575 -0.2338261,0.003 -0.043906,0.0423 -0.047278,0.0587 -0.046709,0.22721 6.17e-4,0.18625 0.011858,0.22031 0.086145,0.2613 0.052454,0.0289 0.097647,0.0276 0.1632282,-0.005 z"
       id="path964"
       inkscape:connector-curvature="0" />
  </g>
</svg>
